<?xml version="1.0" standalone="no"?>
<!DOCTYPE svg PUBLIC "-//W3C//DTD SVG 20010904//EN"
 "http://www.w3.org/TR/2001/REC-SVG-20010904/DTD/svg10.dtd">
<svg version="1.0" xmlns="http://www.w3.org/2000/svg"
 width="700.000000pt" height="700.000000pt" viewBox="0 0 700.000000 700.000000"
 preserveAspectRatio="xMidYMid meet">
<metadata>
Created by potrace 1.11, written by Peter Selinger 2001-2013
</metadata>
<g transform="translate(0.000000,700.000000) scale(0.100000,-0.100000)"
fill="#000000" stroke="none">
<path d="M3298 6995 c-1 -1 -41 -5 -88 -9 -178 -12 -388 -47 -581 -96 -215
-55 -462 -147 -666 -247 -122 -60 -342 -186 -428 -246 -56 -39 -270 -200 -275
-208 -3 -3 -25 -23 -50 -44 -84 -69 -229 -214 -365 -365 -63 -70 -174 -218
-253 -335 -81 -122 -88 -134 -172 -285 -220 -399 -367 -891 -408 -1370 -9
-110 -8 -503 1 -600 12 -109 27 -226 41 -295 2 -11 6 -36 10 -55 49 -273 158
-602 284 -859 378 -774 1003 -1369 1787 -1703 114 -48 266 -102 430 -151 111
-33 354 -83 458 -93 34 -3 65 -8 68 -9 15 -10 227 -20 409 -20 187 0 339 7
430 21 144 21 295 48 345 61 33 8 67 16 75 18 101 20 358 107 514 172 122 51
338 160 394 198 20 14 40 25 45 25 4 0 13 5 20 10 7 6 64 45 127 87 108 71
250 178 330 248 119 104 294 279 365 365 21 25 41 47 44 50 4 3 45 55 91 115
372 489 611 1069 691 1671 38 296 31 756 -16 1014 -25 137 -40 208 -55 270
-192 772 -612 1421 -1246 1928 -189 152 -488 331 -729 439 -240 106 -577 210
-800 247 -33 5 -224 32 -295 42 -47 6 -526 15 -532 9z m447 -589 c86 -7 145
-15 210 -26 28 -5 66 -11 85 -14 42 -6 166 -36 273 -66 198 -55 430 -154 647
-276 49 -27 272 -174 280 -184 3 -3 23 -19 45 -35 22 -17 42 -32 45 -35 3 -3
39 -34 80 -69 500 -430 864 -1076 964 -1711 25 -163 26 -172 33 -275 17 -253
4 -504 -38 -730 -26 -144 -28 -151 -55 -250 -176 -633 -547 -1177 -1071 -1571
-262 -197 -673 -403 -913 -459 -8 -2 -58 -15 -110 -29 -106 -28 -229 -53 -305
-62 -27 -3 -56 -7 -63 -9 -51 -17 -417 -24 -582 -11 -608 45 -1211 297 -1674
698 -75 65 -255 247 -316 319 -201 237 -384 542 -489 814 -24 61 -47 120 -51
132 -12 29 -67 221 -74 253 -2 14 -14 68 -25 120 -11 52 -23 120 -26 150 -4
30 -8 61 -11 69 -22 67 -22 572 0 701 2 14 7 47 11 73 4 27 8 59 11 70 16 84
26 135 29 153 34 165 144 470 232 647 74 148 222 387 300 482 164 202 306 347
467 479 88 72 270 206 280 206 1 0 45 26 97 57 111 67 293 154 439 211 88 34
286 95 349 107 9 1 34 8 56 14 22 5 56 13 75 16 19 3 46 8 60 10 57 11 181 26
270 31 52 4 96 7 97 8 5 4 300 -2 368 -8z"/>
<path d="M3274 5520 c-24 -10 -30 -32 -79 -330 -20 -118 -38 -226 -40 -240 -4
-21 -24 -151 -40 -250 -2 -14 -20 -128 -40 -255 -20 -126 -38 -243 -40 -260
-6 -43 -16 -114 -20 -134 -2 -10 -6 -42 -10 -72 -4 -30 -8 -56 -10 -59 -2 -3
-6 -30 -9 -60 -4 -30 -8 -66 -11 -80 -2 -14 -11 -79 -20 -145 -9 -66 -18 -131
-20 -145 -2 -14 -7 -56 -10 -95 -4 -38 -8 -71 -10 -73 -7 -7 26 -144 43 -179
49 -95 151 -174 257 -198 76 -17 139 -12 430 36 66 11 131 22 145 24 14 2 68
11 120 20 52 9 109 18 125 21 17 3 77 13 135 24 58 11 121 22 140 25 35 5 106
18 275 50 50 10 101 19 115 21 199 34 482 87 508 95 36 12 50 45 33 77 -13 24
-18 26 -136 48 -49 9 -99 18 -110 20 -11 2 -33 7 -50 10 -16 2 -113 21 -215
40 -204 38 -222 41 -265 49 -16 3 -91 17 -165 32 -74 14 -148 27 -165 30 -16
3 -64 11 -105 19 -41 9 -88 17 -105 20 -33 6 -150 28 -236 45 l-57 11 -17 112
c-10 61 -19 120 -20 131 -19 120 -28 177 -35 215 -5 25 -12 68 -15 95 -3 28
-8 57 -10 65 -2 8 -6 33 -10 55 -5 34 -27 176 -40 255 -2 14 -7 45 -10 70 -3
25 -10 68 -15 95 -5 28 -12 68 -15 90 -6 40 -7 50 -25 155 -5 30 -11 71 -14
90 -29 203 -59 380 -67 402 -12 29 -34 39 -65 28z"/>
</g>
</svg>
